<svg xmlns="http://www.w3.org/2000/svg" xmlns:xlink="http://www.w3.org/1999/xlink" viewBox="0,0,256,256" width="50px" height="50px"><g fill="#ffffff" fill-rule="nonzero" stroke="none" stroke-width="1" stroke-linecap="butt" stroke-linejoin="miter" stroke-miterlimit="10" stroke-dasharray="" stroke-dashoffset="0" font-family="none" font-weight="none" font-size="none" text-anchor="none" style="mix-blend-mode: normal"><g transform="scale(5.12,5.12)"><path d="M17.0293,-0.01172c-0.37075,-0.01375 -0.71865,0.17886 -0.90377,0.50037c-0.18513,0.32151 -0.17706,0.71909 0.02096,1.03283l1.55664,2.54297c-0.46299,0.28461 -0.90279,0.60053 -1.32812,0.93555h-7.375c-2.74952,0 -5,2.25048 -5,5v29c0,2.74952 2.25048,5 5,5h5.0957l-0.77734,1.65234c-0.60041,1.27697 -0.30901,2.87992 0.88867,3.75586c0.54268,0.39719 1.17614,0.5918 1.79102,0.5918c1.12827,0 2.20919,-0.64493 2.7168,-1.72266l2.01367,-4.27734h8.54297l2.01367,4.27734c0.50751,1.07902 1.58941,1.72266 2.7168,1.72266c0.61601,0 1.24773,-0.19705 1.78906,-0.5918c0.00065,0 0.0013,0 0.00195,0c1.1969,-0.87537 1.49029,-2.47796 0.88867,-3.75586l-0.77734,-1.65234h4.0957v5c0.00006,0.55226 0.44774,0.99994 1,1h2c2.74952,0 5,-2.25048 5,-5v-27c0,-2.74952 -2.25048,-5 -5,-5h-4.35352c-0.82675,-3.77137 -3.16119,-6.97555 -6.34961,-8.93555l1.55664,-2.54297c0.19122,-0.30308 0.20567,-0.68531 0.03787,-1.00195c-0.1678,-0.31665 -0.4922,-0.51931 -0.85037,-0.53125c-0.36537,-0.01236 -0.70837,0.17561 -0.89453,0.49023l-1.63281,2.66797c-1.69353,-0.73033 -3.55337,-1.14648 -5.51367,-1.14648c-1.9603,0 -3.82014,0.41615 -5.51367,1.14648l-1.63281,-2.66797c-0.17337,-0.29307 -0.48394,-0.47779 -0.82422,-0.49023zM25,4c5.59992,0 10.27235,3.82497 11.60352,9h-23.20703c1.33116,-5.17503 6.0036,-9 11.60352,-9zM9,7h5.30273c-1.43044,1.70253 -2.45602,3.75018 -2.94922,6h-2.35352c-1.66848,0 -3,-1.33152 -3,-3c0,-1.66848 1.33152,-3 3,-3zM19.5,8c-0.82843,0 -1.5,0.67157 -1.5,1.5c0,0.82843 0.67157,1.5 1.5,1.5c0.82843,0 1.5,-0.67157 1.5,-1.5c0,-0.82843 -0.67157,-1.5 -1.5,-1.5zM30.5,8c-0.82843,0 -1.5,0.67157 -1.5,1.5c0,0.82843 0.67157,1.5 1.5,1.5c0.82843,0 1.5,-0.67157 1.5,-1.5c0,-0.82843 -0.67157,-1.5 -1.5,-1.5zM6,13.9707c0.83906,0.63655 1.87206,1.0293 3,1.0293h34c1.66848,0 3,1.33152 3,3c0,1.66848 -1.33152,3 -3,3h-2c-0.55226,0.00006 -0.99994,0.44774 -1,1v20h-5.03711l-6.5293,-13.87305c0.38364,-0.65052 0.56641,-1.3924 0.56641,-2.12695c0,-0.97222 -0.31868,-1.95788 -1.00195,-2.72656c-0.49147,-0.55291 -1.18485,-0.96021 -1.99805,-1.15039v-2.12305c0.0037,-0.2703 -0.10218,-0.53059 -0.29351,-0.72155c-0.19133,-0.19097 -0.45182,-0.29634 -0.72212,-0.29212c-0.55152,0.00862 -0.99193,0.46214 -0.98437,1.01367v2.12305c-0.8132,0.19018 -1.50657,0.59748 -1.99805,1.15039c-0.68327,0.76868 -1.00195,1.75434 -1.00195,2.72656c0,0.73455 0.18277,1.47643 0.56641,2.12695l-6.5293,13.87305h-6.03711c-1.66848,0 -3,-1.33152 -3,-3zM46,21.89063v23.10938c0,1.66848 -1.33152,3 -3,3h-1v-25h1c1.14498,0 2.15458,-0.45532 3,-1.10937zM24.90234,24.00781c0.06624,0.00663 0.13298,0.00663 0.19922,0c0.68286,0.02305 1.09955,0.2553 1.40039,0.59375c0.31673,0.35632 0.49805,0.87066 0.49805,1.39844c0,0.52778 -0.18132,1.04212 -0.49805,1.39844c-0.31673,0.35632 -0.75195,0.60156 -1.50195,0.60156c-0.75,0 -1.18523,-0.24524 -1.50195,-0.60156c-0.31673,-0.35632 -0.49805,-0.87066 -0.49805,-1.39844c0,-0.52778 0.18132,-1.04212 0.49805,-1.39844c0.30145,-0.33913 0.71895,-0.57153 1.4043,-0.59375zM23.10742,29.54883c0.55211,0.27814 1.18727,0.45117 1.89258,0.45117c0.70531,0 1.34047,-0.17303 1.89258,-0.45117l7.97852,16.95508c0.22038,0.4681 0.09933,1.02643 -0.25977,1.28906c-0.20414,0.1483 -0.40796,0.20703 -0.60937,0.20703c-0.37461,0 -0.73176,-0.20324 -0.90625,-0.57422l-5.5625,-11.82031c-0.97844,-2.0807 -4.08796,-2.0807 -5.06641,0l-5.5625,11.82031c-0.17469,0.36919 -0.5331,0.57422 -0.90625,0.57422c-0.20512,0 -0.40801,-0.05627 -0.61133,-0.20508c0,-0.00065 0,-0.0013 0,-0.00195c-0.35832,-0.26206 -0.4774,-0.82204 -0.25781,-1.28906h-0.00195zM25,35.95117c0.28194,0 0.56388,0.16821 0.72266,0.50586l2.60938,5.54297h-6.66406l2.60938,-5.54297c0.15878,-0.33765 0.44072,-0.50586 0.72266,-0.50586z"></path></g></g></svg>